<svg xmlns="http://www.w3.org/2000/svg" xmlns:xlink="http://www.w3.org/1999/xlink" width="143px" height="143px" viewBox="0 0 143 143" version="1.1">
      <defs>
          <linearGradient x1="5.55555556%" y1="28.0709343%" x2="90.7407407%" y2="78.1945131%" id="linearGradient-1">
              <stop stop-color="#3A74F0" offset="0%"/>
              <stop stop-color="#3A74F0" stop-opacity="0" offset="68.0702%"/>
          </linearGradient>
          <linearGradient x1="17.1428571%" y1="13.8249093%" x2="77.7142857%" y2="89.1896816%" id="linearGradient-2">
              <stop stop-color="#4F70FF" stop-opacity="0.478431" offset="0%"/>
              <stop stop-color="#4F70FF" stop-opacity="0" offset="100%"/>
          </linearGradient>
          <linearGradient x1="16.9491525%" y1="14.6944129%" x2="79.3785311%" y2="85.0401316%" id="linearGradient-3">
              <stop stop-color="#113a86" offset="0%"/>
              <stop stop-color="#1c6bf5" offset="100%"/>
          </linearGradient>
          <filter x="-36.1%" y="-36.1%" width="172.3%" height="172.3%" filterUnits="objectBoundingBox" id="filter-4">
              <feGaussianBlur stdDeviation="10" in="SourceGraphic"/>
          </filter>
      </defs>
      <g stroke="none" stroke-width="1" fill="none" fill-rule="evenodd">
          <g transform="translate(-1136.000000, -892.000000)">
              <g transform="translate(1138.000000, 902.000000)">
                  <path d="M49.8982105,0 C21.3923684,5.91279897 0,30.7276546 0,60.4421134 C0,77.9505928 7.42736842,93.7579639 19.3608947,105 M108.045553,103.633376 C119.153447,92.4941753 126,77.2523969 126,60.4421134 C126,47.8074742 122.132132,36.058299 115.494474,26.2716495" id="形状" stroke-opacity="0.945098" stroke="#2744FF" stroke-linecap="round"/>
                  <ellipse stroke="#1746F0" cx="62.5" cy="59.5" rx="59.5" ry="58.5"/>
                  <ellipse stroke="url(#linearGradient-1)" cx="62.5" cy="59.5" rx="59.5" ry="58.5"/>
                  <path d="M62.4734513,116 C94.2298244,116 119.973451,90.7040884 119.973451,59.5 C119.973451,28.2959116 94.2298244,3 62.4734513,3 C30.7170782,3 4.97345133,28.2959116 4.97345133,59.5 C4.97345133,90.7040884 30.7170782,116 62.4734513,116 Z" id="椭圆形" stroke-opacity="0.905882" stroke="#555EA4" stroke-linecap="round" stroke-linejoin="round" stroke-dasharray="1,17"/>
                  <circle fill="#0024FF" fill-rule="nonzero" cx="114.5" cy="25.5" r="1.5"/>
                  <circle fill-opacity="0.894118" fill="#00FF8C" fill-rule="nonzero" cx="112.5" cy="80.5" r="1"/>
                  <circle fill-opacity="0.894118" fill="#00FF8C" fill-rule="nonzero" cx="10.5" cy="40.5" r="1"/>
                  <polygon fill="#2745FF" fill-rule="nonzero" points="18 103 20 103 20 105"/>
                  <ellipse stroke-opacity="0.172549" stroke="#3979FF" cx="62.5" cy="59.5" rx="48.5" ry="47.5"/>
                  <ellipse stroke="url(#linearGradient-2)" cx="62.5" cy="59.5" rx="48.5" ry="47.5"/>
                  <ellipse fill="url(#linearGradient-3)" fill-rule="nonzero" cx="63" cy="59.5" rx="49" ry="47.5"/>
                  <path d="M10.5389455,41.0513433 L10.1474208,40.9119751 L10.5389455,41.0513433 Z M8.4291546,46.3869204 C8.37361917,46.6049204 8.50968097,46.8256318 8.73237804,46.8798607 C8.95563046,46.9340896 9.18165966,46.8012289 9.23719509,46.5832289 L8.4291546,46.3869204 Z M62.3979288,113.592741 C62.6278455,113.592199 62.8138892,113.409448 62.8127785,113.184398 C62.8122231,112.959891 62.6250687,112.778766 62.395152,112.779307 L62.3979288,113.592741 Z M65.707285,112.670851 C65.4779237,112.68495 65.3035424,112.878547 65.3179817,113.102512 C65.3329762,113.326478 65.5306824,113.496756 65.7600437,113.482657 L65.707285,112.670851 Z M66.1804469,113.455 C66.4098082,113.438731 66.5825234,113.24405 66.5664181,113.020085 C66.5497575,112.796119 66.3509406,112.627468 66.121024,112.643736 L66.1804469,113.455 Z M69.4164963,112.316194 C69.1882457,112.34602 69.0277483,112.550463 69.0582928,112.772801 C69.0882819,112.995682 69.2976505,113.152403 69.5253457,113.122577 L69.4164963,112.316194 Z M69.9413061,113.067264 C70.1695567,113.036353 70.328388,112.830826 70.2961775,112.607945 C70.2645223,112.385607 70.0534877,112.230512 69.8257924,112.261965 L69.9413061,113.067264 Z M73.0890542,111.716423 C72.8635804,111.760891 72.7175222,111.975637 72.7636166,112.195806 C72.8091556,112.415975 73.0290759,112.558055 73.2545498,112.513587 L73.0890542,111.716423 Z M73.6666227,112.430075 C73.8920965,112.38398 74.0359333,112.168149 73.9881728,111.948522 C73.9409677,111.728353 73.7199367,111.5879 73.4950182,111.633995 L73.6666227,112.430075 Z M76.714407,110.870453 C76.4928206,110.930104 76.3623124,111.15407 76.4234013,111.370985 C76.4844903,111.587358 76.7138516,111.714796 76.935438,111.655144 L76.714407,110.870453 Z M77.3408466,111.544517 C77.5618776,111.482697 77.6907198,111.258189 77.6279648,111.041816 C77.5652097,110.825985 77.3347377,110.700174 77.1131514,110.761995 L77.3408466,111.544517 Z M80.2697851,109.784249 C80.0526416,109.858542 79.938794,110.090642 80.0148775,110.302677 C80.090961,110.514711 80.3286527,110.626423 80.5457962,110.551587 L80.2697851,109.784249 Z M80.9412085,110.414388 C81.1577966,110.338468 81.2699782,110.105284 81.1922286,109.894333 C81.114479,109.682841 80.8756766,109.572756 80.6596438,109.649219 L80.9412085,110.414388 Z M83.7401941,108.461607 C83.5291594,108.550542 83.4314171,108.789692 83.5224952,108.996303 C83.6130179,109.202373 83.8584845,109.297816 84.0695191,109.208881 L83.7401941,108.461607 Z M84.4554904,109.045109 C84.6659697,108.954547 84.7620459,108.714856 84.6693018,108.508786 C84.5765576,108.303259 84.331091,108.209985 84.1206117,108.300547 L84.4554904,109.045109 Z M87.1106392,106.909035 C86.9062688,107.01207 86.8257425,107.257184 86.9307044,107.456746 C87.0356664,107.656851 87.2872419,107.735483 87.4916123,107.632448 L87.1106392,106.909035 Z M87.8648103,107.443189 C88.0686254,107.33907 88.1469303,107.093413 88.0403023,106.894393 C87.9336743,106.695373 87.6815434,106.61891 87.4777284,106.72303 L87.8648103,107.443189 Z M90.3627939,105.135751 C90.1661985,105.251801 90.1028881,105.501796 90.2217339,105.693766 C90.3411351,105.886279 90.5971534,105.9481 90.7937489,105.831507 L90.3627939,105.135751 Z M91.1530631,105.617846 C91.3491031,105.500711 91.4101921,105.250174 91.2896802,105.058746 C91.1691683,104.867318 90.9125947,104.807667 90.7165546,104.924801 L91.1530631,105.617846 Z M93.4849957,103.148806 C93.2967306,103.277328 93.2511916,103.531119 93.3833659,103.714955 C93.5155402,103.898791 93.7748907,103.943259 93.9631558,103.814736 L93.4849957,103.148806 Z M94.3069201,103.577214 C94.4940745,103.447065 94.5373921,103.193274 94.4041071,103.00998 C94.270822,102.827229 94.0103609,102.78493 93.8232065,102.91508 L94.3069201,103.577214 Z M96.460584,100.959045 C96.2817599,101.10004 96.2539922,101.356 96.3989397,101.531159 C96.5433318,101.705776 96.805459,101.732891 96.9842831,101.591353 L96.460584,100.959045 Z M97.3102761,101.332139 C97.4879894,101.19006 97.5140911,100.933557 97.3680329,100.760025 C97.2219747,100.586493 96.9598475,100.561005 96.7815788,100.703627 L97.3102761,101.332139 Z M99.2773409,98.5767711 C99.1090686,98.7296965 99.0990722,98.9867413 99.2551268,99.151597 C99.4117367,99.3164527 99.67553,99.3262139 99.8438023,99.1732886 L99.2773409,98.5767711 Z M100.151469,98.8929254 C100.31863,98.7389154 100.326405,98.4818706 100.16924,98.3180995 C100.011519,98.1548706 99.747726,98.1467363 99.580009,98.3007463 L100.151469,98.8929254 Z M101.922493,96.0139154 C101.764773,96.1771443 101.772548,96.4347313 101.940265,96.5887413 C102.107426,96.7427512 102.37122,96.7346169 102.52894,96.5713881 L101.922493,96.0139154 Z M102.816058,96.2715025 C102.972113,96.1066468 102.962672,95.8490597 102.793844,95.6966766 C102.625017,95.5437512 102.361779,95.5535124 102.205169,95.7183682 L102.816058,96.2715025 Z M104.383268,93.2813234 C104.23721,93.4548557 104.262756,93.7113582 104.441025,93.8534378 C104.618738,93.9960597 104.880866,93.9711144 105.026924,93.7970398 L104.383268,93.2813234 Z M105.292383,93.4792587 C105.436775,93.3046418 105.409008,93.0481393 105.230184,92.9071443 C105.051359,92.7661493 104.789232,92.7932637 104.644285,92.9678806 L105.292383,93.4792587 Z M106.648003,90.39201 C106.514163,90.5753035 106.558036,90.8290945 106.74519,90.9592438 C106.932344,91.0899353 107.192806,91.0470945 107.326091,90.8643433 L106.648003,90.39201 Z M107.56878,90.529209 C107.700955,90.3453731 107.655416,90.0915821 107.467151,89.9625174 C107.278885,89.8334527 107.01898,89.8779204 106.886805,90.0617562 L107.56878,90.529209 Z M108.706146,87.35899 C108.585634,87.5504179 108.646723,87.8009552 108.842763,87.9180896 C109.038803,88.0357662 109.295377,87.9761144 109.415889,87.7846866 L108.706146,87.35899 Z M109.634698,87.4343682 C109.753544,87.2418557 109.690789,86.9918607 109.493638,86.8758109 C109.296488,86.7597612 109.040469,86.8210398 108.921623,87.0135522 L109.634698,87.4343682 Z M110.547145,84.1963632 C110.440517,84.3953831 110.519378,84.6410398 110.723193,84.7451592 C110.927008,84.8492786 111.178583,84.7728159 111.285211,84.573796 L110.547145,84.1963632 Z M111.47903,84.2093781 C111.583992,84.0098159 111.503466,83.7647015 111.299095,83.6616667 C111.094725,83.5591741 110.843149,83.637806 110.738187,83.8373682 L111.47903,84.2093781 Z M112.162671,80.9176866 C112.070482,81.1232139 112.166003,81.3634478 112.376482,81.4534677 C112.586962,81.5440299 112.832984,81.4507562 112.925173,81.2446866 L112.162671,80.9176866 Z M113.093445,80.867796 C113.183968,80.6617264 113.086781,80.4225771 112.875191,80.3336418 C112.664156,80.2447065 112.419245,80.3401493 112.328167,80.5462189 L113.093445,80.867796 Z M113.543837,77.5381443 C113.466088,77.7496368 113.578269,77.9822786 113.794857,78.0587413 C114.011446,78.1346617 114.250248,78.0251194 114.327997,77.8136269 L113.543837,77.5381443 Z M114.468502,77.4275174 C114.544586,77.2154826 114.430738,76.9833831 114.213594,76.9085473 C113.996451,76.8342537 113.758759,76.9459652 113.682676,77.158 L114.468502,77.4275174 Z M114.683424,74.0756318 C114.620669,74.2914627 114.748956,74.5165124 114.970542,74.577791 C115.191573,74.6390697 115.422045,74.513801 115.4848,74.2974279 L114.683424,74.0756318 Z M115.598093,73.9020995 C115.659182,73.6851841 115.529229,73.4617612 115.307087,73.4015672 C115.085501,73.3419154 114.856139,73.4693532 114.79505,73.6857264 L115.598093,73.9020995 Z M115.576989,70.5420796 C115.529784,70.7622488 115.673621,70.9775373 115.898539,71.0241741 C116.124013,71.0702687 116.344489,70.9298159 116.392249,70.7101891 L115.576989,70.5420796 Z M116.477219,70.3072687 C116.523313,70.0870995 116.377255,69.8723532 116.151781,69.8278856 C115.926307,69.7834179 115.706942,69.9254975 115.660848,70.1456667 L116.477219,70.3072687 Z M116.219534,66.9597214 C116.187879,67.1820597 116.34671,67.3875871 116.574406,67.4184975 C116.802101,67.4499502 117.01258,67.2948557 117.044791,67.0725174 L116.219534,66.9597214 Z M117.101437,66.6663433 C117.131426,66.4434627 116.970929,66.2390199 116.743233,66.2097363 C116.514983,66.1804527 116.305614,66.3366318 116.275625,66.5595124 L117.101437,66.6663433 Z M116.610504,63.3421144 C116.594398,63.5660796 116.767113,63.7607612 116.996475,63.7764876 C117.225836,63.7927562 117.425208,63.6241045 117.441314,63.399597 L116.610504,63.3421144 Z M117.469637,62.9896269 C117.484631,62.7651194 117.31025,62.5720647 117.080889,62.5579652 C116.850972,62.5433234 116.653266,62.713602 116.638271,62.9381095 L117.469637,62.9896269 Z M116.749893,59.7033582 C116.748787,59.9278657 116.93483,60.1106169 117.164747,60.1117015 C117.394664,60.1122438 117.581818,59.9311194 117.582929,59.7060697 L116.749893,59.7033582 Z M9.27662524,46.4313881 C9.33271602,46.2133881 9.19720958,45.9926766 8.97451251,45.9373632 C8.75126009,45.882592 8.52523089,46.0143682 8.46858475,46.2323682 L9.27662524,46.4313881 Z M9.16610974,43.7790547 C9.09946722,43.9943433 9.22331123,44.2210199 9.44378688,44.2866368 C9.66370718,44.3517114 9.89640062,44.2302388 9.96304314,44.0149502 L9.16610974,43.7790547 Z M10.0574534,43.715607 C10.1252066,43.5008607 10.0024733,43.2730995 9.782553,43.206398 C9.5626327,43.1402388 9.3293839,43.2600846 9.26163067,43.4748308 L10.0574534,43.715607 Z M10.0918853,41.0611045 C10.0135804,41.272597 10.1252066,41.5057811 10.3412394,41.5822438 C10.5578276,41.6587065 10.7966299,41.5497065 10.8749349,41.3387562 L10.0918853,41.0611045 Z M11.0010003,41.0025373 C11.0809713,40.7921294 10.9704558,40.5578607 10.7549784,40.4803134 C10.5395009,40.4022239 10.2995878,40.509597 10.2196168,40.7205473 L11.0010003,41.0025373 Z M11.4730514,37.6989154 C11.3803073,37.9044428 11.4758282,38.1446766 11.6863075,38.2352388 C11.8967868,38.325801 12.1428087,38.2325274 12.2355529,38.027 L11.4730514,37.6989154 Z M12.4027145,37.6609552 C12.4971247,37.4559701 12.4032699,37.215194 12.193346,37.123005 C11.9839774,37.0308159 11.7374001,37.1224627 11.6429899,37.3269055 L12.4027145,37.6609552 Z M13.104127,34.3963781 C12.9969436,34.595398 13.0758039,34.8410547 13.2790636,34.9457164 C13.4828786,35.0498358 13.7350095,34.9733731 13.8416375,34.7743532 L13.104127,34.3963781 Z M14.0337901,34.4196965 C14.1426395,34.2217612 14.0660006,33.9755622 13.8632963,33.8692736 C13.6600366,33.7635274 13.4079058,33.8383632 13.2996117,34.0362985 L14.0337901,34.4196965 Z M14.9606764,31.2098905 C14.8401645,31.4013184 14.9018088,31.6518557 15.0972935,31.7695323 C15.2933336,31.887209 15.5499073,31.8275572 15.6704191,31.6361294 L14.9606764,31.2098905 Z M15.8870073,31.2950299 C16.0091853,31.1041443 15.9497623,30.853607 15.754833,30.7343035 C15.5599036,30.615 15.3027746,30.6730249 15.1805967,30.8633682 L15.8870073,31.2950299 Z M17.0343693,28.1535522 C16.9005289,28.3363035 16.9444019,28.5906368 17.1321116,28.7207861 C17.319266,28.8509353 17.5791718,28.8086368 17.7130122,28.6253433 L17.0343693,28.1535522 Z M17.9523699,28.2994279 C18.087321,28.1172189 18.0456694,27.8628856 17.8590704,27.7311095 C17.6730267,27.5998756 17.4125655,27.6405473 17.2776144,27.8222139 L17.9523699,28.2994279 Z M19.314654,25.2409204 C19.1685958,25.4144527 19.1946974,25.6709552 19.3724108,25.8130348 C19.5506795,25.9556567 19.8128068,25.9301692 19.9588649,25.7560945 L19.314654,25.2409204 Z M20.2204368,25.44699 C20.3676057,25.274 20.3437255,25.0174975 20.1665674,24.873791 C19.9899648,24.7300846 19.7272822,24.7539453 19.5801133,24.926393 L20.2204368,25.44699 Z M21.7904234,22.4844677 C21.6332581,22.6482388 21.6415884,22.9058259 21.8093054,23.0598358 C21.9770224,23.2133035 22.2402604,23.2051692 22.397981,23.041398 L21.7904234,22.4844677 Z M22.6801009,22.7496468 C22.8389323,22.5875025 22.8328234,22.3299154 22.6662171,22.1748209 C22.4996108,22.0197264 22.2358175,22.0262338 22.0769862,22.1889204 L22.6801009,22.7496468 Z M24.4511258,19.8977512 C24.2828534,20.0506766 24.2734124,20.3082637 24.4300223,20.4725771 C24.5866322,20.6368905 24.8504255,20.6461095 25.0186978,20.4931841 L24.4511258,19.8977512 Z M25.3202552,20.2209552 C25.4901936,20.0691144 25.5013007,19.8115274 25.3458015,19.6461294 C25.1903023,19.4807313 24.9270644,19.4693433 24.7576813,19.6211841 L25.3202552,20.2209552 Z M27.283988,17.4916169 C27.1051639,17.6331542 27.0779515,17.8896567 27.222899,18.0637313 C27.3678465,18.2383483 27.6305291,18.2643781 27.8087978,18.1228408 L27.283988,17.4916169 Z M28.1286819,17.8712189 C28.3086166,17.7307662 28.3374951,17.474806 28.1942137,17.2996468 C28.0503769,17.1239453 27.7882497,17.0957463 27.6083149,17.236199 L28.1286819,17.8712189 Z M30.2762369,15.2774527 C30.0885271,15.4070597 30.0435434,15.6608507 30.1762731,15.8441443 C30.3090028,16.0274378 30.5689086,16.0713632 30.7566183,15.9417562 L30.2762369,15.2774527 Z M31.093163,15.7118259 C31.2819835,15.5838458 31.3291886,15.3300547 31.1975696,15.1456766 C31.066506,14.9612985 30.8071556,14.9157463 30.6177798,15.0437264 L31.093163,15.7118259 Z M33.4150993,13.2655622 C33.2190592,13.3821542 33.1563042,13.6326915 33.2762607,13.8246617 C33.3956619,14.0160896 33.6522356,14.0768259 33.848831,13.9602338 L33.4150993,13.2655622 Z M34.2003703,13.7530796 C34.397521,13.6375721 34.4619421,13.3875771 34.3436517,13.1950647 C34.2259166,13.00201 33.9698982,12.9396468 33.7727475,13.0551542 L34.2003703,13.7530796 Z M36.6866914,11.4662488 C36.482321,11.5698259 36.4029054,11.8149403 36.508978,12.0145025 C36.6150507,12.2140647 36.8660708,12.2916119 37.0704412,12.1880348 L36.6866914,11.4662488 Z M37.4358643,12.004199 C37.6407901,11.9022488 37.7224272,11.6571343 37.6180206,11.4570299 C37.5136139,11.2569254 37.2625938,11.177209 37.0576681,11.2797015 L37.4358643,12.004199 Z M40.0754633,9.88764677 C39.8644286,9.97766667 39.767797,10.2173582 39.8599858,10.4228856 C39.9516193,10.6289552 40.1970859,10.7233134 40.4081205,10.6332935 L40.0754633,9.88764677 Z M40.7857614,10.474403 C40.9973514,10.38601 41.0956491,10.147403 41.0051263,9.94079104 C40.915159,9.7341791 40.6702477,9.63819403 40.4586577,9.72604478 L40.7857614,10.474403 Z M43.5669757,8.53843284 C43.3503875,8.61381095 43.2370952,8.84645274 43.3142895,9.05794527 C43.3920391,9.26943781 43.6302861,9.38006468 43.8468742,9.30468657 L43.5669757,8.53843284 Z M44.2339562,9.17128358 C44.4510997,9.09753234 44.566058,8.86543284 44.4905298,8.65339801 C44.4150017,8.44136318 44.17731,8.32910945 43.9601665,8.4028607 L44.2339562,9.17128358 Z M47.1451233,7.42457214 C46.923537,7.48530846 46.7946948,7.71035821 46.8568945,7.92618905 C46.9196495,8.14256219 47.1495662,8.26837313 47.3711525,8.20763682 L47.1451233,7.42457214 Z M47.7660094,8.10080597 C47.9881511,8.04115423 48.1186594,7.81773134 48.0581258,7.60081592 C47.9975922,7.38444279 47.7682308,7.25646269 47.5466445,7.31611443 L47.7660094,8.10080597 Z M50.7915796,6.55257214 C50.5661057,6.59866667 50.4217136,6.81395522 50.4689187,7.03358209 C50.5161239,7.25375124 50.7365995,7.39474627 50.9620734,7.34865174 L50.7915796,6.55257214 Z M51.3652606,7.26785075 C51.5907344,7.22338308 51.7367926,7.0091791 51.6912535,6.78900995 C51.6462698,6.5688408 51.4263495,6.42621891 51.2008757,6.47014428 L51.3652606,7.26785075 Z M54.4902391,5.92460199 C54.2619885,5.95551244 54.1031572,6.1610398 54.1348124,6.38337811 C54.1664676,6.60625871 54.3769469,6.76135323 54.6046421,6.73044279 L54.4902391,5.92460199 Z M55.0122722,6.67675622 C55.2405228,6.64747264 55.4010202,6.44302985 55.371031,6.22014925 C55.3410419,5.99781095 55.1316733,5.84054726 54.9039781,5.86983085 L55.0122722,6.67675622 Z M58.2244414,5.5429393 C57.99508,5.55877413 57.8223649,5.75323881 57.8384701,5.97720398 C57.8545754,6.20116915 58.0539476,6.37036318 58.2833089,6.35409453 L58.2244414,5.5429393 Z M58.6931604,6.32752239 C58.9225217,6.31342289 59.0969029,6.12036816 59.0824637,5.8958607 C59.0680245,5.67189552 58.869763,5.50161692 58.6404017,5.51577065 L58.6931604,6.32752239 Z M61.9769703,5.40709602 C61.7470536,5.40790945 61.5615653,5.59071493 61.5621206,5.8150597 C61.5632313,6.04010945 61.7503857,6.22123383 61.9803024,6.22069276 L61.9769703,5.40709602 Z M62.1868942,113.593284 C62.2574242,113.593284 62.3273988,113.593284 62.3979288,113.592741 L62.395152,112.779308 C62.3257328,112.779851 62.2563135,112.779851 62.1868942,112.779851 L62.1868942,113.593284 Z M65.7600437,113.482657 C65.9005483,113.47398 66.0404976,113.464761 66.1804469,113.455 L66.121024,112.643736 C65.9832961,112.652955 65.8455682,112.662174 65.707285,112.670851 L65.7600437,113.482657 Z M69.5253457,113.122577 C69.6641843,113.104682 69.8030229,113.086244 69.9413061,113.067264 L69.8257924,112.261965 C69.6897306,112.280403 69.5531135,112.298841 69.4164963,112.316194 L69.5253457,113.122577 Z M73.2545498,112.513587 C73.3922776,112.48593 73.5294501,112.458274 73.6666227,112.430075 L73.4950182,111.633995 C73.3595117,111.662194 73.2245606,111.689308 73.0890542,111.716423 L73.2545498,112.513587 Z M76.935438,111.655144 C77.0709444,111.618269 77.2058955,111.581393 77.3408466,111.544517 L77.1131514,110.761995 C76.9804217,110.798328 76.847692,110.834662 76.714407,110.870453 L76.935438,111.655144 Z M80.5457962,110.551587 C80.6779705,110.506577 80.8095895,110.460483 80.9412085,110.414388 L80.6596438,109.649219 C80.5296909,109.694771 80.399738,109.739781 80.2697851,109.784249 L80.5457962,110.551587 Z M84.0695191,109.208881 C84.1983613,109.154652 84.3272035,109.099881 84.4554904,109.045109 L84.1206117,108.300547 C83.993991,108.354776 83.8673702,108.408463 83.7401941,108.461607 L84.0695191,109.208881 Z M87.4916123,107.632448 C87.6160116,107.570085 87.740411,107.507179 87.8648103,107.443189 L87.4777284,106.72303 C87.3555505,106.785393 87.2333725,106.847756 87.1106392,106.909035 L87.4916123,107.632448 Z M90.7937489,105.831507 C90.9137054,105.76101 91.0336619,105.68997 91.1530631,105.617846 L90.7165546,104.924801 C90.5993749,104.995841 90.4810844,105.065796 90.3627939,105.135751 L90.7937489,105.831507 Z M93.9631558,103.814736 C94.0781141,103.736104 94.1925171,103.65693 94.3069201,103.577214 L93.8232065,102.91508 C93.7110249,102.993169 93.598288,103.071259 93.4849957,103.148806 L93.9631558,103.814736 Z M96.9842831,101.591353 C97.0936879,101.505672 97.201982,101.418905 97.3102761,101.332139 L96.7815788,100.703627 C96.6749507,100.789308 96.5683227,100.874448 96.460584,100.959045 L96.9842831,101.591353 Z M99.8438023,99.1732886 C99.9465428,99.0805572 100.049283,98.9867413 100.151469,98.8929254 L99.580009,98.3007463 C99.4794899,98.3934776 99.3789708,98.4851244 99.2773409,98.5767711 L99.8438023,99.1732886 Z M102.52894,96.5713881 C102.625017,96.471607 102.720538,96.3718259 102.816058,96.2715025 L102.205169,95.7183682 C102.111314,95.8170647 102.016904,95.9157612 101.922493,96.0139154 L102.52894,96.5713881 Z M105.026924,93.7970398 C105.115781,93.6918358 105.204082,93.5855473 105.292383,93.4792587 L104.644285,92.9678806 C104.557649,93.0725423 104.470459,93.177204 104.383268,93.2813234 L105.026924,93.7970398 Z M107.326091,90.8643433 C107.407728,90.7531741 107.488254,90.6409204 107.56878,90.529209 L106.886805,90.0617562 C106.80739,90.1723831 106.727974,90.2824677 106.648003,90.39201 L107.326091,90.8643433 Z M109.415889,87.7846866 C109.489196,87.6680945 109.562502,87.5515025 109.634698,87.4343682 L108.921623,87.0135522 C108.850538,87.1290597 108.778342,87.2440249 108.706146,87.35899 L109.415889,87.7846866 Z M111.285211,84.573796 C111.350188,84.4528657 111.414609,84.331393 111.47903,84.2093781 L110.738187,83.8373682 C110.674877,83.9572139 110.611567,84.0770597 110.547145,84.1963632 L111.285211,84.573796 Z M112.925173,81.2446866 C112.981819,81.1194179 113.037909,80.9941493 113.093445,80.867796 L112.328167,80.5462189 C112.273187,80.670403 112.218207,80.7940448 112.162671,80.9176866 L112.925173,81.2446866 Z M114.327997,77.8136269 C114.375203,77.6851045 114.421852,77.5560398 114.468502,77.4275174 L113.682676,77.158 C113.636581,77.2848955 113.590487,77.411791 113.543837,77.5381443 L114.327997,77.8136269 Z M115.4848,74.2974279 C115.52312,74.1656517 115.560884,74.0338756 115.598093,73.9020995 L114.79505,73.6857264 C114.758397,73.8158756 114.721188,73.9460249 114.683424,74.0756318 L115.4848,74.2974279 Z M116.392249,70.7101891 C116.421128,70.5757015 116.449451,70.4417562 116.477219,70.3072687 L115.660848,70.1456667 C115.633635,70.2779851 115.605312,70.4103035 115.576989,70.5420796 L116.392249,70.7101891 Z M117.044791,67.0725174 C117.064228,66.9369453 117.08311,66.8019154 117.101437,66.6663433 L116.275625,66.5595124 C116.257298,66.6929154 116.238972,66.8263184 116.219534,66.9597214 L117.044791,67.0725174 Z M117.441314,63.399597 C117.45131,63.2629403 117.460751,63.1262836 117.469637,62.9896269 L116.638271,62.9381095 C116.629941,63.072597 116.6205,63.2076269 116.610504,63.3421144 L117.441314,63.399597 Z M117.582929,59.7060697 C117.582929,59.6377413 117.583484,59.5688706 117.583484,59.5 L116.750453,59.5 C116.750453,59.5677861 116.749898,59.6355721 116.749898,59.7033582 L117.582929,59.7060697 Z M9.23719509,46.5832289 C9.25052359,46.532796 9.26329674,46.4818209 9.27662524,46.4313881 L8.46858475,46.2323682 C8.45525625,46.2838856 8.4424831,46.335403 8.4291546,46.3869204 L9.23719509,46.5832289 Z M9.96304314,44.0149502 C9.99414298,43.9151692 10.0257982,43.8153881 10.0574534,43.715607 L9.26163067,43.4748308 C9.22942013,43.5762388 9.19776493,43.6776468 9.16610974,43.7790547 L9.96304314,44.0149502 Z M10.8749349,41.3387562 C10.8932616,41.289408 10.9115883,41.240602 10.929915,41.1912537 L10.1474208,40.9119751 C10.1290941,40.9618657 10.110212,41.0112139 10.0918853,41.0611045 L10.8749349,41.3387562 Z M10.929915,41.1912537 C10.9532398,41.1283483 10.9771201,41.0654428 11.0010003,41.0025373 L10.2196168,40.7205473 C10.1957366,40.783995 10.171301,40.8479851 10.1474208,40.9119751 L10.929915,41.1912537 Z M12.2355529,38.027 C12.290533,37.9049851 12.3466237,37.7829701 12.4027145,37.6609552 L11.6429899,37.3269055 C11.5857884,37.4510896 11.5291422,37.5747313 11.4730514,37.6989154 L12.2355529,38.027 Z M13.8416375,34.7743532 C13.9055032,34.6561343 13.969369,34.5379154 14.0337901,34.4196965 L13.2996117,34.0362985 C13.2340799,34.1561443 13.1685481,34.27599 13.104127,34.3963781 L13.8416375,34.7743532 Z M15.6704191,31.6361294 C15.7420598,31.5217065 15.8142559,31.4083682 15.8870073,31.2950299 L15.1805967,30.8633682 C15.1067345,30.9788756 15.0334278,31.0943831 14.9606764,31.2098905 L15.6704191,31.6361294 Z M17.7130122,28.6253433 C17.7924279,28.5163433 17.8723989,28.4078856 17.9523699,28.2994279 L17.2776144,27.8222139 C17.1959774,27.9322985 17.1148956,28.0429254 17.0343693,28.1535522 L17.7130122,28.6253433 Z M19.9588649,25.7560945 C20.0455002,25.6525174 20.1326908,25.5494826 20.2204368,25.44699 L19.5801133,24.926393 C19.4912566,25.0310547 19.4023999,25.1357164 19.314654,25.2409204 L19.9588649,25.7560945 Z M22.397981,23.041398 C22.4918358,22.9437861 22.5856907,22.8467164 22.6801009,22.7496468 L22.0769862,22.1889204 C21.9814653,22.2870746 21.8859443,22.3857711 21.7904234,22.4844677 L22.397981,23.041398 Z M25.0186978,20.4931841 C25.1186616,20.4020796 25.2197361,20.3109751 25.3202552,20.2209552 L24.7576813,19.6211841 C24.6549408,19.7128308 24.5527556,19.8050199 24.4511258,19.8977512 L25.0186978,20.4931841 Z M27.8087978,18.1228408 C27.9154258,18.0387861 28.0220538,17.9547313 28.1286819,17.8712189 L27.6083149,17.236199 C27.5000208,17.320796 27.3917267,17.4059353 27.283988,17.4916169 L27.8087978,18.1228408 Z M30.7566183,15.9417562 C30.8687999,15.8647512 30.9809815,15.7882886 31.093163,15.7118259 L30.6177798,15.0437264 C30.5039321,15.1212736 30.3900845,15.1988209 30.2762369,15.2774527 L30.7566183,15.9417562 Z M33.848831,13.9602338 C33.9654554,13.8908209 34.0826352,13.821408 34.2003703,13.7530796 L33.7727475,13.0551542 C33.6533463,13.1245672 33.5339451,13.1950647 33.4150993,13.2655622 L33.848831,13.9602338 Z M37.0704412,12.1880348 C37.1920638,12.1262139 37.3136864,12.0649353 37.4358643,12.004199 L37.0576681,11.2797015 C36.9338241,11.3409801 36.8099801,11.4033433 36.6866914,11.4662488 L37.0704412,12.1880348 Z M40.4081205,10.6332935 C40.5336306,10.5801493 40.659696,10.527005 40.7857614,10.474403 L40.4586577,9.72604478 C40.3303709,9.77973134 40.2026394,9.83341791 40.0754633,9.88764677 L40.4081205,10.6332935 Z M43.8468742,9.30468657 C43.9757164,9.25967662 44.1045586,9.21520896 44.2339562,9.17128358 L43.9601665,8.4028607 C43.8285475,8.44787065 43.6974839,8.4928806 43.5669757,8.53843284 L43.8468742,9.30468657 Z M47.3711525,8.20763682 C47.5022161,8.17130348 47.6343905,8.13605473 47.7660094,8.10080597 L47.5466445,7.31611443 C47.4128041,7.35190547 47.2789637,7.38769652 47.1451233,7.42457214 L47.3711525,8.20763682 Z M50.9620734,7.34865174 C51.0959137,7.32099502 51.2308648,7.29442289 51.3652606,7.26785075 L51.2008757,6.47014428 C51.0642585,6.49725871 50.9276414,6.52437313 50.7915796,6.55257214 L50.9620734,7.34865174 Z M54.6046421,6.73044279 C54.7407039,6.71200498 54.8762104,6.69410945 55.0122722,6.67675622 L54.9039781,5.86983085 C54.7656949,5.88772637 54.627967,5.90616418 54.4902391,5.92460199 L54.6046421,6.73044279 Z M58.2833089,6.35409453 C58.4199261,6.34487562 58.5565432,6.336199 58.6931604,6.32752239 L58.6404017,5.51577065 C58.5015631,5.52433881 58.3632799,5.53339502 58.2244414,5.5429393 L58.2833089,6.35409453 Z M61.9803024,6.22069154 C62.0491663,6.22014925 62.1180303,6.22014925 62.1868942,6.22014925 L62.1868942,5.40671642 C62.1169196,5.40671642 62.0469449,5.40682488 61.9769703,5.40709602 L61.9803024,6.22069154 Z M10.5389455,41.0513433 L9.75645134,40.7720647 L9.75645134,40.7720647 L10.5389455,41.0513433 Z M8.02485668,46.2887662 C7.91378582,46.7242239 8.18535407,47.1656468 8.63185891,47.2746468 C9.07836376,47.3831045 9.53042215,47.1173831 9.64149301,46.6813831 L8.02485668,46.2887662 Z M62.3995949,113.999458 C62.8594282,113.997831 63.2309603,113.632328 63.2292998,113.183313 C63.2276281,112.733756 62.8533193,112.370965 62.393486,112.372587 L62.3995949,113.999458 Z M65.680628,112.264677 C65.2219054,112.293418 64.8731429,112.68007 64.9025767,113.128542 C64.9314551,113.576473 65.3274227,113.91703 65.7867007,113.888289 L65.680628,112.264677 Z M66.2098806,113.860632 C66.6691586,113.828637 67.014589,113.439274 66.9818231,112.991343 C66.9490572,112.543413 66.5503128,112.206109 66.0915902,112.237562 L66.2098806,113.860632 Z M69.3615162,111.913274 C68.9055704,111.971841 68.5845756,112.380726 68.6451092,112.826488 C68.7056428,113.271706 69.1243799,113.585149 69.5803258,113.52604 L69.3615162,111.913274 Z M69.9990629,113.470184 C70.4550088,113.407821 70.7726715,112.996766 70.7088057,112.551547 C70.64494,112.106871 70.2239814,111.796682 69.7680356,111.859045 L69.9990629,113.470184 Z M73.0063064,111.317841 C72.5553587,111.406776 72.2637977,111.836269 72.3554312,112.276607 C72.4465093,112.716945 72.8863499,113.001104 73.3372976,112.912169 L73.0063064,111.317841 Z M73.7527026,112.828114 C74.2025395,112.735383 74.4907684,112.304264 74.3958028,111.864468 C74.3008372,111.424672 73.8593306,111.143766 73.4089383,111.236498 L73.7527026,112.828114 Z M76.6038915,110.478378 C76.1601634,110.597682 75.8997022,111.045612 76.0218802,111.4789 C76.1440581,111.912189 76.6027808,112.166522 77.0465088,112.047219 L76.6038915,110.478378 Z M77.4546942,111.935507 C77.8973116,111.81295 78.1538853,111.363393 78.0283752,110.931189 C77.9028651,110.498985 77.4424764,110.247905 76.9998591,110.370463 L77.4546942,111.935507 Z M80.1320573,109.400308 C79.6977702,109.549438 79.4695196,110.013637 79.6216867,110.437706 C79.7744091,110.861234 80.2497924,111.084114 80.6840794,110.935527 L80.1320573,109.400308 Z M81.0822684,110.797244 C81.5154448,110.644861 81.7398079,110.179035 81.5843087,109.756592 C81.4288095,109.333607 80.9512048,109.114522 80.5185838,109.266363 L81.0822684,110.797244 Z M83.5758092,108.08797 C83.1531846,108.265841 82.9576999,108.744139 83.1398561,109.156821 C83.3214569,109.569502 83.8118348,109.759846 84.2344594,109.582517 L83.5758092,108.08797 Z M84.6232074,109.417119 C85.0441659,109.236537 85.2357632,108.756612 85.0508302,108.345557 C84.8653418,107.93396 84.3738533,107.747413 83.9528947,107.927995 L84.6232074,109.417119 Z M86.9201527,106.547328 C86.5108566,106.752856 86.3498038,107.243627 86.5602831,107.642751 C86.7707624,108.042418 87.2728027,108.199682 87.6820988,107.994154 L86.9201527,106.547328 Z M88.0580736,107.803811 C88.4657037,107.59503 88.6228689,107.103716 88.4090575,106.705677 C88.1958015,106.307637 87.6920952,106.154169 87.2844651,106.36295 L88.0580736,107.803811 Z M90.1478718,104.787602 C89.7541256,105.019701 89.6275048,105.519692 89.8651965,105.904174 C90.1034435,106.288657 90.6154801,106.412299 91.0092263,106.179657 L90.1478718,104.787602 Z M91.3713173,105.964368 C91.7628421,105.729557 91.8855754,105.228483 91.6445516,104.845627 C91.4035279,104.462771 90.8903805,104.343468 90.4988557,104.578821 L91.3713173,105.964368 Z M93.245638,102.815841 C92.8691078,103.073428 92.7780297,103.58101 93.0423784,103.948682 C93.306727,104.316353 93.8259833,104.405289 94.2025135,104.147159 L93.245638,102.815841 Z M94.5484992,103.908552 C94.9233633,103.647711 95.010554,103.140129 94.7434285,102.774085 C94.4763031,102.40804 93.9559362,102.3229 93.5816274,102.583741 L94.5484992,103.908552 Z M96.1990121,100.642348 C95.841364,100.924881 95.7858285,101.437343 96.0746128,101.786577 C96.3639523,102.135811 96.8887621,102.19004 97.2464103,101.90805 L96.1990121,100.642348 Z M97.5746247,101.646667 C97.9300514,101.361965 97.9816994,100.84896 97.6901384,100.501896 C97.398022,100.154831 96.8732122,100.104398 96.5177855,100.3891 L97.5746247,101.646667 Z M98.9941102,98.2785124 C98.6570102,98.5843632 98.6370174,99.098995 98.9502373,99.4281642 C99.2629017,99.7578756 99.7899329,99.7768557 100.127033,99.4715473 L98.9941102,98.2785124 Z M100.436921,99.1890149 C100.771799,98.8815373 100.787349,98.3663632 100.472463,98.0393632 C100.157022,97.7123632 99.6294356,97.6966368 99.2945569,98.0046567 L100.436921,99.1890149 Z M101.61927,95.7351791 C101.303829,96.0621791 101.319934,96.5768109 101.654813,96.8848308 C101.989691,97.1928507 102.516722,97.1771244 102.832164,96.8501244 L101.61927,95.7351791 Z M103.121503,96.5480697 C103.434168,96.2183582 103.414175,95.7037264 103.077075,95.3984179 C102.73942,95.0931095 102.212388,95.1120896 101.899724,95.441801 L103.121503,96.5480697 Z M104.061163,93.023194 C103.769046,93.3702587 103.820694,93.8827214 104.176676,94.1679652 C104.532103,94.453209 105.056913,94.4027761 105.349029,94.0551692 L104.061163,93.023194 Z M105.616155,93.7346766 C105.905494,93.3854428 105.849959,92.8729801 105.492311,92.59099 C105.134107,92.3084577 104.609853,92.3626866 104.320513,92.7119204 L105.616155,93.7346766 Z M106.308682,90.1561144 C106.041556,90.5221592 106.128747,91.0297413 106.503611,91.2905821 C106.87792,91.5514229 107.398287,91.4662836 107.665412,91.1002388 L106.308682,90.1561144 Z M107.909768,90.7629353 C108.174117,90.3947214 108.083039,89.8876816 107.706508,89.6295522 C107.329423,89.3714229 106.810166,89.4609005 106.545818,89.8285721 L107.909768,90.7629353 Z M108.351275,87.1458706 C108.110251,87.5287264 108.232984,88.029801 108.625064,88.2646119 C109.016589,88.4999652 109.529736,88.3806617 109.77076,87.997806 L108.351275,87.1458706 Z M109.991236,87.6442338 C110.228927,87.2597512 110.102862,86.7597612 109.709116,86.5276617 C109.31537,86.2950199 108.803333,86.4186617 108.565086,86.8031443 L109.991236,87.6442338 Z M110.17839,84.0076468 C109.965134,84.4051443 110.122299,84.897 110.529929,85.1052388 C110.937004,85.3140199 111.440711,85.1605522 111.653967,84.7625124 L110.17839,84.0076468 Z M111.849451,84.3953831 C112.059931,83.9962587 111.898878,83.5054876 111.489582,83.2999602 C111.080286,83.0944328 110.578245,83.2516965 110.367766,83.6513632 L111.849451,84.3953831 Z M111.781698,80.7539154 C111.59621,81.1655124 111.787807,81.6454378 112.208765,81.8260199 C112.630279,82.006602 113.121768,81.8200547 113.306701,81.4084577 L111.781698,80.7539154 Z M113.476084,81.0288557 C113.657685,80.6161741 113.462755,80.1378756 113.040131,79.960005 C112.617506,79.7826766 112.127684,79.9730199 111.945528,80.3857015 L113.476084,81.0288557 Z M113.152312,77.400403 C112.996258,77.8233881 113.221176,78.2892139 113.653797,78.4410547 C114.086974,78.5934378 114.564023,78.3738109 114.719522,77.9513682 L113.152312,77.400403 Z M114.861693,77.562005 C115.01386,77.1379353 114.785609,76.6737363 114.351322,76.5251493 C113.917591,76.3760199 113.441652,76.5989005 113.289485,77.0229701 L114.861693,77.562005 Z M114.283014,73.9644627 C114.157504,74.3966667 114.414077,74.8462239 114.856695,74.9693234 C115.299312,75.0918806 115.760256,74.840801 115.885766,74.408597 L114.283014,73.9644627 Z M115.999614,74.0100149 C116.121792,73.5767264 115.861331,73.128796 115.418158,73.0094925 C114.97443,72.8901891 114.515707,73.1445224 114.393529,73.5778109 L115.999614,74.0100149 Z M115.169359,70.4585672 C115.074394,70.8978209 115.362622,71.3294826 115.813015,71.4222139 C116.262852,71.5149453 116.704914,71.2334975 116.799879,70.7937015 L115.169359,70.4585672 Z M116.885404,70.3880697 C116.977037,69.9477313 116.685476,69.5187811 116.234529,69.4293035 C115.784136,69.3398259 115.344296,69.6245274 115.252662,70.0648657 L116.885404,70.3880697 Z M115.807461,66.9033234 C115.743596,67.348 116.061258,67.7590547 116.516649,67.8214179 C116.972039,67.8837811 117.393553,67.573592 117.457419,67.1289154 L115.807461,66.9033234 Z M117.514065,66.7194876 C117.574599,66.2742687 117.254159,65.8653831 116.797658,65.8062736 C116.341712,65.7477065 115.922975,66.060607 115.862441,66.5063682 L117.514065,66.7194876 Z M116.195099,63.3128308 C116.162333,63.7613035 116.507763,64.1501244 116.967041,64.1821194 C117.425764,64.2141144 117.824508,63.8768109 117.856719,63.4288806 L116.195099,63.3128308 Z M117.885597,63.0151144 C117.915031,62.5671841 117.566268,62.1805323 117.10699,62.151791 C116.647712,62.123592 116.2523,62.463607 116.222866,62.9120796 L117.885597,63.0151144 Z M116.333376,59.7017313 C116.331716,60.1512886 116.703248,60.516791 117.163081,60.5184234 C117.62347,60.5200448 117.997779,60.1572537 117.999445,59.7076965 L116.333376,59.7017313 Z M9.68036781,46.5306269 C9.79310473,46.0951692 9.52264719,45.653204 9.07614234,45.5431194 C8.63019285,45.4330348 8.17757911,45.6971294 8.06484219,46.1331294 L9.68036781,46.5306269 Z M8.76736536,43.6608358 C8.63408033,44.0908706 8.8823237,44.5453085 9.32271965,44.6754577 C9.7631156,44.8061493 10.2285025,44.563204 10.3617875,44.1331692 L8.76736536,43.6608358 Z M10.455087,43.835995 C10.5911488,43.4065025 10.3451269,42.9509801 9.90584165,42.8181194 C9.46655641,42.6852587 8.99950345,42.9254925 8.86344165,43.3544428 L10.455087,43.835995 Z M9.70036056,40.9228209 C9.5431953,41.3452637 9.76700308,41.8116318 10.1996241,41.9645572 C10.6322451,42.1180249 11.1098497,41.8994826 11.2664596,41.4770398 L9.70036056,40.9228209 Z M11.3914144,41.1440746 C11.5513564,40.7227164 11.3308807,40.2547214 10.8993705,40.0985423 C10.4684155,39.9429055 9.98914479,40.1576517 9.82920276,40.57901 L11.3914144,41.1440746 Z M11.0920784,37.5351443 C10.9065901,37.946199 11.0970766,38.4261244 11.5180351,38.6072488 C11.939549,38.7889154 12.4310376,38.6023682 12.6165259,38.1913134 L11.0920784,37.5351443 Z M12.7825769,37.8279801 C12.9713973,37.41801 12.7842429,36.9364577 12.3643951,36.7520796 C11.9451026,36.5677015 11.451948,36.7504527 11.2631275,37.1604229 L12.7825769,37.8279801 Z M12.7353717,34.2076617 C12.5215603,34.6051592 12.6781702,35.0970149 13.0858003,35.305796 C13.492875,35.5145771 13.9965813,35.3611095 14.2103927,34.9636119 L12.7353717,34.2076617 Z M14.4014346,34.6116667 C14.6180228,34.2152537 14.4653003,33.7228557 14.0593364,33.5108209 C13.6539277,33.2987861 13.1491107,33.4484577 12.9319672,33.8448706 L14.4014346,34.6116667 Z M14.605805,30.9967711 C14.3647812,31.3796269 14.4875145,31.8807015 14.8795946,32.1160547 C15.2711194,32.351408 15.7842668,32.2315622 16.0252905,31.8487065 L14.605805,30.9967711 Z M16.2402126,31.5103184 C16.4840132,31.1296318 16.3657227,30.6274726 15.9753086,30.389408 C15.5854499,30.1513433 15.0711919,30.2668507 14.8273913,30.6480796 L16.2402126,31.5103184 Z M16.6950478,27.9176567 C16.4279224,28.2837015 16.5156684,28.7912836 16.8899772,29.0521244 C17.2648413,29.3124229 17.7852083,29.2272836 18.0517783,28.8612388 L16.6950478,27.9176567 Z M18.2900253,28.5374925 C18.5599275,28.1736169 18.476069,27.6654925 18.1034263,27.4019403 C17.7307835,27.1383881 17.2098612,27.2202736 16.939959,27.5841493 L18.2900253,28.5374925 Z M18.9925485,24.982791 C18.7009875,25.330398 18.7526354,25.8428607 19.1086175,26.1275622 C19.4645996,26.4122637 19.9894094,26.3612886 20.2809704,26.0142239 L18.9925485,24.982791 Z M20.5408762,25.7067463 C20.8346587,25.3613085 20.7868982,24.8488458 20.4331375,24.5614328 C20.0793768,24.2740199 19.5540117,24.321199 19.2596739,24.6666368 L20.5408762,25.7067463 Z M21.4866446,22.2062736 C21.1717587,22.5338159 21.1884193,23.0484478 21.5238533,23.3559254 C21.8592873,23.663403 22.3868739,23.6471343 22.7017598,23.319592 L21.4866446,22.2062736 Z M22.9816583,23.0305522 C23.299321,22.7051791 23.2865478,22.1905473 22.9533353,21.8803582 C22.6201227,21.5707114 22.0930915,21.5826418 21.7759842,21.9080149 L22.9816583,23.0305522 Z M24.1673397,19.6000348 C23.8302397,19.9064279 23.8113576,20.4210597 24.1251328,20.7496866 C24.4383526,21.0783134 24.9653838,21.0967512 25.3024839,20.7909005 L24.1673397,19.6000348 Z M25.6018199,20.5208408 C25.9411413,20.2171592 25.9639108,19.7025274 25.6529124,19.3711891 C25.341914,19.040393 24.8148828,19.0181592 24.4761167,19.3212985 L25.6018199,20.5208408 Z M27.0213054,17.176005 C26.6642126,17.4590796 26.6097879,17.9715423 26.8996828,18.3202338 C27.1895778,18.6689254 27.7143876,18.7220697 28.0714804,18.4384527 L27.0213054,17.176005 Z M28.389143,18.189 C28.7484572,17.9080945 28.8067694,17.3961741 28.5190959,17.0453134 C28.2319778,16.6944527 27.7077233,16.6375124 27.3484091,16.9184179 L28.389143,18.189 Z M30.0363238,14.9450299 C29.660349,15.2042438 29.5709369,15.7118259 29.8358409,16.0789552 C30.1013003,16.4455423 30.6211119,16.533393 30.9970867,16.2741791 L30.0363238,14.9450299 Z M31.3308547,16.0458756 C31.7090509,15.7893731 31.8023505,15.2823333 31.5396679,14.9135771 C31.2775407,14.5448209 30.7582844,14.4531741 30.3806435,14.7096766 L31.3308547,16.0458756 Z M33.1985111,12.9179552 C32.8058757,13.1516816 32.6809209,13.6522139 32.9202786,14.0361542 C33.1596363,14.4195522 33.6722283,14.5410249 34.0654192,14.3078408 L33.1985111,12.9179552 Z M34.4141817,14.1017711 C34.8090386,13.8712985 34.9373254,13.3713085 34.7012998,12.9862836 C34.4647189,12.6007164 33.9532376,12.4754478 33.5583807,12.7059204 L34.4141817,14.1017711 Z M36.4945388,11.1050846 C36.0863534,11.3122388 35.9269667,11.80301 36.1391121,12.2021343 C36.3512574,12.6007164 36.8544084,12.7558109 37.2625938,12.5486567 L36.4945388,11.1050846 Z M37.6252402,12.3664478 C38.0350916,12.1625473 38.1978104,11.6723184 37.9889972,11.2721095 C37.780184,10.8719005 37.2781437,10.71301 36.8682923,10.9169104 L37.6252402,12.3664478 Z M39.908857,9.51509453 C39.4873431,9.69459204 39.2940798,10.1739751 39.4779021,10.5855721 C39.6617243,10.9971692 40.1526575,11.1858856 40.5747268,11.0063881 L39.908857,9.51509453 Z M40.9490356,10.8485821 C41.3722155,10.6723383 41.5688109,10.1940398 41.3883208,9.78081592 C41.2078307,9.36813433 40.7180082,9.17562189 40.2948282,9.35240796 L40.9490356,10.8485821 Z M43.4270264,8.15503483 C42.9932947,8.30633333 42.7678209,8.77161692 42.9222093,9.19460199 C43.0765978,9.61812935 43.5536472,9.83829851 43.9868235,9.68754229 L43.4270264,8.15503483 Z M44.3711287,9.55522388 C44.8054157,9.40772139 45.0353324,8.94352239 44.8837207,8.51945274 C44.7326643,8.09538308 44.2578364,7.87087562 43.822994,8.0189204 L44.3711287,9.55522388 Z M47.0323864,7.0330398 C46.5892137,7.15505473 46.3315293,7.60406965 46.4559287,8.03681592 C46.5808834,8.4690199 47.0407167,8.72064179 47.4838895,8.59916915 L47.0323864,7.0330398 Z M47.8759696,8.4928806 C48.3196977,8.37466169 48.5812695,7.92727363 48.4596469,7.49398507 C48.3385797,7.06069652 47.8804124,6.80527861 47.4366843,6.92349751 L47.8759696,8.4928806 Z M50.706055,6.15453234 C50.2556627,6.2461791 49.9668785,6.67729851 50.0612887,7.11709453 C50.1551436,7.55689055 50.5966502,7.8388806 51.0470426,7.74669154 L50.706055,6.15453234 Z M51.447453,7.66643284 C51.8984007,7.5780398 52.190517,7.14908955 52.0999943,6.70875124 C52.0089162,6.26841294 51.5696309,5.98316915 51.1186833,6.07156219 L51.447453,7.66643284 Z M54.4324823,5.52184428 C53.9770918,5.58366517 53.6588738,5.99455721 53.7221842,6.43977612 C53.7854945,6.88445274 54.2064531,7.19518408 54.6618436,7.13336318 L54.4324823,5.52184428 Z M55.0666969,7.07967662 C55.5226428,7.02110945 55.8441929,6.61276617 55.7842146,6.16754726 C55.7242364,5.72194876 55.3054992,5.40828905 54.8495534,5.46680199 L55.0666969,7.07967662 Z M58.1955629,5.13725323 C57.7362849,5.16892289 57.3908546,5.55785224 57.4230651,6.00594527 C57.4552757,6.45387562 57.85402,6.79172139 58.3127427,6.76026866 L58.1955629,5.13725323 Z M58.719262,6.73369652 C59.17854,6.70495522 59.5273025,6.31884577 59.4978687,5.87037313 C59.4689903,5.42206318 59.0730227,5.0815602 58.6143001,5.10986766 L58.719262,6.73369652 Z M61.9758596,5.0003796 C61.5154709,5.0020607 61.1439388,5.36756318 61.1455993,5.81668657 C61.147271,6.26624378 61.5215798,6.62903483 61.9819685,6.62741341 L61.9758596,5.0003796 Z M62.1868942,114 C62.2574242,114 62.3285095,114 62.3995949,113.999458 L62.393486,112.372592 C62.3246221,112.373134 62.2557581,112.373134 62.1868942,112.373134 L62.1868942,114 Z M65.7867007,113.888289 C65.9277607,113.879612 66.069376,113.870393 66.2098806,113.860632 L66.0915902,112.237562 C65.954973,112.247323 65.8178005,112.256542 65.680628,112.264677 L65.7867007,113.888289 Z M69.5803258,113.52604 C69.7202751,113.507602 69.859669,113.489164 69.9990629,113.470184 L69.7680356,111.859045 C69.6330845,111.877483 69.497578,111.895378 69.3615162,111.913274 L69.5803258,113.52604 Z M73.3372976,112.912169 C73.4755808,112.884512 73.6144193,112.856856 73.7527026,112.828114 L73.4089383,111.236498 C73.2750979,111.263612 73.1407021,111.291269 73.0063064,111.317841 L73.3372976,112.912169 Z M77.0465088,112.047219 C77.1825706,112.010343 77.3186324,111.972925 77.4546942,111.935507 L76.9998591,110.370463 C76.8676848,110.406796 76.7360658,110.443129 76.6038915,110.478378 L77.0465088,112.047219 Z M80.6840794,110.935527 C80.8168091,110.889975 80.9495388,110.843881 81.0822684,110.797244 L80.5185838,109.266363 C80.3897416,109.311373 80.2608995,109.356383 80.1320573,109.400308 L80.6840794,110.935527 Z M84.2344594,109.582517 C84.3644123,109.527746 84.4938098,109.472975 84.6232074,109.417119 L83.9528947,107.927995 C83.8273847,107.981682 83.7013193,108.035368 83.5758092,108.08797 L84.2344594,109.582517 Z M87.6820988,107.994154 C87.8076089,107.931249 87.9331189,107.867801 88.0580736,107.803811 L87.2844651,106.36295 C87.1633979,106.424771 87.0417753,106.486592 86.9201527,106.547328 L87.6820988,107.994154 Z M91.0092263,106.179657 C91.1302935,106.108617 91.2508054,106.037035 91.3713173,105.964368 L90.4988557,104.578821 C90.3822313,104.648776 90.2650516,104.718189 90.1478718,104.787602 L91.0092263,106.179657 Z M94.2025135,104.147159 C94.3180272,104.067985 94.4335408,103.988811 94.5484992,103.908552 L93.5816274,102.583741 C93.4700012,102.661289 93.3578196,102.738836 93.245638,102.815841 L94.2025135,104.147159 Z M97.2464103,101.90805 C97.3563705,101.821284 97.4657753,101.733975 97.5746247,101.646667 L96.5177855,100.3891 C96.4117128,100.474239 96.3056401,100.558294 96.1990121,100.642348 L97.2464103,101.90805 Z M100.127033,99.4715473 C100.230884,99.3777313 100.33418,99.2839154 100.436921,99.1890149 L99.2945569,98.0046567 C99.1951485,98.0963035 99.0946294,98.1879502 98.9941102,98.2785124 L100.127033,99.4715473 Z M102.832164,96.8501244 C102.928795,96.749801 103.025427,96.6489353 103.121503,96.5480697 L101.899724,95.441801 C101.806424,95.5399552 101.713125,95.6375672 101.61927,95.7351791 L102.832164,96.8501244 Z M105.349029,94.0551692 C105.438441,93.9488806 105.527853,93.8420498 105.616155,93.7346766 L104.320513,92.7119204 C104.234433,92.8160398 104.147798,92.9196169 104.061163,93.023194 L105.349029,94.0551692 Z M107.665412,91.1002388 C107.747049,90.9879851 107.828686,90.8757313 107.909768,90.7629353 L106.545818,89.8285721 C106.466958,89.9381144 106.388097,90.0471144 106.308682,90.1561144 L107.665412,91.1002388 Z M109.77076,87.997806 C109.844622,87.8801294 109.918484,87.7624527 109.991236,87.6442338 L108.565086,86.8031443 C108.494556,86.9175672 108.422915,87.03199 108.351275,87.1458706 L109.77076,87.997806 Z M111.653967,84.7625124 C111.719498,84.6404975 111.784475,84.5184826 111.849451,84.3953831 L110.367766,83.6513632 C110.305011,83.7701244 110.242256,83.8888856 110.17839,84.0076468 L111.653967,84.7625124 Z M113.306701,81.4084577 C113.363347,81.2821045 113.419993,81.1557512 113.476084,81.0288557 L111.945528,80.3857015 C111.891103,80.508801 111.836678,80.6313582 111.781698,80.7539154 L113.306701,81.4084577 Z M114.719522,77.9513682 C114.767283,77.8217612 114.814488,77.6921542 114.861693,77.562005 L113.289485,77.0229701 C113.243946,77.1487811 113.198407,77.2751343 113.152312,77.400403 L114.719522,77.9513682 Z M115.885766,74.408597 C115.924086,74.2757363 115.962405,74.1428756 115.999614,74.0100149 L114.393529,73.5778109 C114.356876,73.7068756 114.320222,73.8359403 114.283014,73.9644627 L115.885766,74.408597 Z M116.799879,70.7937015 C116.828758,70.6586716 116.857636,70.5236418 116.885404,70.3880697 L115.252662,70.0648657 C115.22545,70.1960995 115.197682,70.3273333 115.169359,70.4585672 L116.799879,70.7937015 Z M117.457419,67.1289154 C117.476856,66.992801 117.495738,66.8561443 117.514065,66.7194876 L115.862441,66.5063682 C115.84467,66.6386866 115.826343,66.771005 115.807461,66.9033234 L117.457419,67.1289154 Z M117.856719,63.4288806 C117.86727,63.2911393 117.876711,63.153398 117.885597,63.0151144 L116.222866,62.9120796 C116.213981,63.0460249 116.205095,63.1794279 116.195099,63.3128308 L117.856719,63.4288806 Z M117.999445,59.7076965 C117.999445,59.6388259 118,59.5694129 118,59.5 L116.333937,59.5 C116.333937,59.5672438 116.333382,59.6344876 116.333382,59.7017313 L117.999445,59.7076965 Z M9.64149301,46.6813831 C9.65426616,46.6314925 9.66759466,46.5810597 9.68036781,46.5306269 L8.06484219,46.1331294 C8.05151368,46.1846468 8.03818518,46.2367065 8.02485668,46.2887662 L9.64149301,46.6813831 Z M10.3617875,44.1331692 C10.392332,44.0339303 10.4234318,43.9346915 10.455087,43.835995 L8.86344165,43.3544428 C8.8312311,43.456393 8.79902055,43.5588856 8.76736536,43.6608358 L10.3617875,44.1331692 Z M11.2664596,41.4770398 C11.2847863,41.4282338 11.3025577,41.3799701 11.3208844,41.3311642 L9.75645134,40.7720647 C9.7375693,40.8224975 9.71868725,40.8723881 9.70036056,40.9228209 L11.2664596,41.4770398 Z M11.3208844,41.3311642 C11.3442092,41.268801 11.3680895,41.2064378 11.3914144,41.1440746 L9.82920276,40.57901 C9.80476717,40.6435423 9.78033158,40.7075323 9.75645134,40.7720647 L11.3208844,41.3311642 Z M12.6165259,38.1913134 C12.671506,38.0698408 12.7264861,37.9489104 12.7825769,37.8279801 L11.2631275,37.1604229 C11.2053707,37.2851493 11.1487245,37.4098756 11.0920784,37.5351443 L12.6165259,38.1913134 Z M14.2103927,34.9636119 C14.2737031,34.8459353 14.3375689,34.728801 14.4014346,34.6116667 L12.9319672,33.8448706 C12.86588,33.9652587 12.8003482,34.0861891 12.7353717,34.2076617 L14.2103927,34.9636119 Z M16.0252905,31.8487065 C16.0963759,31.7359104 16.1680166,31.6231144 16.2402126,31.5103184 L14.8273913,30.6480796 C14.7535292,30.7641294 14.6796671,30.8801791 14.605805,30.9967711 L16.0252905,31.8487065 Z M18.0517783,28.8612388 C18.131194,28.7533234 18.2100543,28.645408 18.2900253,28.5374925 L16.939959,27.5841493 C16.858322,27.6947761 16.7761295,27.8059453 16.6950478,27.9176567 L18.0517783,28.8612388 Z M20.2809704,26.0142239 C20.3670503,25.9111891 20.4536856,25.8086965 20.5408762,25.7067463 L19.2596739,24.6666368 C19.1702619,24.7718408 19.0808498,24.8770448 18.9925485,24.982791 L20.2809704,26.0142239 Z M22.7017598,23.319592 C22.7945039,23.2230647 22.8878035,23.1265373 22.9816583,23.0305522 L21.7759842,21.9080149 C21.6787972,22.0072537 21.5827209,22.1064925 21.4866446,22.2062736 L22.7017598,23.319592 Z M25.3024839,20.7909005 C25.4018923,20.7003383 25.5018561,20.6103184 25.6018199,20.5208408 L24.4761167,19.3212985 C24.3728208,19.4140299 24.2695249,19.5067612 24.1673397,19.6000348 L25.3024839,20.7909005 Z M28.0714804,18.4384527 C28.1769977,18.3549403 28.2830703,18.2714279 28.389143,18.189 L27.3484091,16.9184179 C27.2390043,17.0035572 27.1301548,17.0897811 27.0213054,17.176005 L28.0714804,18.4384527 Z M30.9970867,16.2741791 C31.1081576,16.1977164 31.2192285,16.1212537 31.3308547,16.0458756 L30.3806435,14.7096766 C30.2651298,14.7877662 30.1507268,14.866398 30.0363238,14.9450299 L30.9970867,16.2741791 Z M34.0654192,14.3078408 C34.1814882,14.2384279 34.2975573,14.1700995 34.4141817,14.1017711 L33.5583807,12.7059204 C33.4384242,12.7764179 33.3184677,12.8469154 33.1985111,12.9179552 L34.0654192,14.3078408 Z M37.2625938,12.5486567 C37.3831057,12.4873781 37.5041729,12.4266418 37.6252402,12.3664478 L36.8682923,10.9169104 C36.7433375,10.9792736 36.6189382,11.0421791 36.4945388,11.1050846 L37.2625938,12.5486567 Z M40.5747268,11.0063881 C40.6991261,10.9532438 40.8240808,10.9006418 40.9490356,10.8485821 L40.2948282,9.35240796 C40.165986,9.40609453 40.0371438,9.46032338 39.908857,9.51509453 L40.5747268,11.0063881 Z M43.9868235,9.68754229 C44.114555,9.64307463 44.2428418,9.59914925 44.3711287,9.55522388 L43.822994,8.0189204 C43.6908197,8.06393035 43.5586454,8.10948259 43.4270264,8.15503483 L43.9868235,9.68754229 Z M47.4838895,8.59916915 C47.6143977,8.56337811 47.744906,8.52812935 47.8759696,8.4928806 L47.4366843,6.92349751 C47.3017332,6.95983085 47.1667822,6.99616418 47.0323864,7.0330398 L47.4838895,8.59916915 Z M51.0470426,7.74669154 C51.1803276,7.71957711 51.3136126,7.69300498 51.447453,7.66643284 L51.1186833,6.07156219 C50.9809554,6.09867662 50.8437829,6.12633333 50.706055,6.15453234 L51.0470426,7.74669154 Z M54.6618436,7.13336318 C54.7967947,7.11492537 54.9317458,7.09702985 55.0666969,7.07967662 L54.8495534,5.46680199 C54.7107148,5.48464328 54.5713209,5.50297264 54.4324823,5.52184428 L54.6618436,7.13336318 Z M58.3127427,6.76026866 C58.4482491,6.75050746 58.5837556,6.74183085 58.719262,6.73369652 L58.6143001,5.10986766 C58.4743508,5.11849005 58.3349569,5.1276005 58.1955629,5.13725323 L58.3127427,6.76026866 Z M61.9819685,6.62740796 C62.050277,6.62686567 62.1185856,6.62686567 62.1868942,6.62686567 L62.1868942,5 C62.1163642,5 62.0458342,5.00010846 61.9758596,5.0003796 L61.9819685,6.62740796 Z" id="形状" fill="#0021FF" fill-rule="nonzero" opacity="0.4"/>
                  <circle fill="${color}" filter="url(#filter-4)" cx="62.5" cy="61.5" r="41.5"/>
              </g>
          </g>
      </g>
  </svg>